<svg xmlns="http://www.w3.org/2000/svg" viewBox="0 0 132.37 244.29"><defs><style>.cls-1{fill:#d8d8d8;}.cls-2{fill:#878787;}.cls-3{fill:#fff;}</style></defs><title>Rocket</title><g id="Layer_2" data-name="Layer 2"><g id="Layer_14_copy" data-name="Layer 14 copy"><path class="cls-1" d="M90.53,174.47V40A21.74,21.74,0,0,0,87,28.16L72.6,3.48a7.66,7.66,0,0,0-12.84,0L45.34,28.16A21.74,21.74,0,0,0,41.83,40V174.47a19.79,19.79,0,0,1-6.71,14.85L2.46,225.06A9.38,9.38,0,0,0,0,231.39v7.91a4.06,4.06,0,0,0,4.06,4.06H128.31a4.06,4.06,0,0,0,4.06-4.06v-7.91a9.38,9.38,0,0,0-2.46-6.33L97.24,189.32A19.79,19.79,0,0,1,90.53,174.47Z"/><path class="cls-2" d="M71.9,244.29H60.47a2.07,2.07,0,0,1-2.07-2.24l4.66-57.67a2.07,2.07,0,0,1,2.07-1.91h2.11a2.07,2.07,0,0,1,2.07,1.91L74,242.05A2.07,2.07,0,0,1,71.9,244.29Z"/><path class="cls-2" d="M46.38,194.46l-31,33a5.35,5.35,0,0,0-1.45,3.66v11a1.25,1.25,0,0,0,1.25,1.25H47.29a1.25,1.25,0,0,0,1.25-1.25V195.32A1.25,1.25,0,0,0,46.38,194.46Z"/><path class="cls-2" d="M86,194.46l31,33a5.35,5.35,0,0,1,1.45,3.66v11a1.25,1.25,0,0,1-1.25,1.25H85.08a1.25,1.25,0,0,1-1.25-1.25V195.32A1.25,1.25,0,0,1,86,194.46Z"/><rect class="cls-3" x="48.54" y="33.88" width="35.28" height="16.86" rx="2.49" ry="2.49"/></g></g></svg>