<svg xmlns="http://www.w3.org/2000/svg" viewBox="0 0 155.1 246"><defs><style>.cls-1{fill:#238269;}.cls-2{fill:#0e8487;}.cls-3{fill:#1d634f;}.cls-4{fill:#19c1d8;}.cls-5{fill:#0e9aa5;}</style></defs><title>Satellite_Blue</title><g id="Layer_2" data-name="Layer 2"><g id="Layer_14" data-name="Layer 14"><path class="cls-1" d="M103.51,106.26a1.39,1.39,0,0,1-.85-1.28A1.39,1.39,0,0,0,103.51,106.26Z"/><path class="cls-1" d="M11,88.42a27.15,27.15,0,0,1,5.44,1A27.1,27.1,0,0,0,11,88.42Z"/><path class="cls-1" d="M115.14,105a1.39,1.39,0,0,1-.85,1.28A1.39,1.39,0,0,0,115.14,105Z"/><path class="cls-1" d="M94.35,164.1a1.39,1.39,0,0,1-.85-1.28A1.39,1.39,0,0,0,94.35,164.1Z"/><path class="cls-1" d="M83.3,162.81a1.39,1.39,0,0,1-.85,1.28A1.39,1.39,0,0,0,83.3,162.81Z"/><path class="cls-1" d="M.22,122.24A1.41,1.41,0,0,0,0,123H0A1.41,1.41,0,0,1,.22,122.24Z"/><polygon class="cls-1" points="0 123 0 123 0 123 0 123"/><path class="cls-1" d="M44,112.6a1.39,1.39,0,0,1-.85,1.28A1.39,1.39,0,0,0,44,112.6Z"/><path class="cls-2" d="M16.49,123V89.46h0a27.16,27.16,0,0,0-5.44-1,1.39,1.39,0,0,0-1.51,1.3L7.75,118.13a1.39,1.39,0,0,1-.88,1.21l-6,2.37a1.38,1.38,0,0,0-.66.54A1.41,1.41,0,0,0,0,123Z"/><path class="cls-2" d="M16.49,123H0a1.41,1.41,0,0,0,.22.76,1.37,1.37,0,0,0,.66.54l6,2.37a1.39,1.39,0,0,1,.88,1.21l1.79,28.41a1.39,1.39,0,0,0,1.51,1.3,27.13,27.13,0,0,0,5.45-1.05Z"/><path class="cls-3" d="M11,157.58a27.1,27.1,0,0,0,5.45-1h0A27.13,27.13,0,0,1,11,157.58Z"/><path class="cls-1" d="M115.14,144.48a1.39,1.39,0,0,0,.85,1.28A1.39,1.39,0,0,1,115.14,144.48Z"/><path class="cls-4" d="M155,105.8a7.1,7.1,0,0,0-7-5.67H116.54a1.39,1.39,0,0,0-1.39,1.39V105a1.39,1.39,0,0,1-1.39,1.39H104a1.39,1.39,0,0,1-1.39-1.39V97.36A1.39,1.39,0,0,0,101.26,96H93.5V83.19a1.39,1.39,0,0,1,1.39-1.39h6.62a1.39,1.39,0,0,0,1.37-1.12l15.68-79A1.39,1.39,0,0,0,117.19,0H89.33V123H155.1V107.23A7.14,7.14,0,0,0,155,105.8Z"/><path class="cls-5" d="M89.33,150h11.93a1.39,1.39,0,0,0,1.39-1.39V141a1.39,1.39,0,0,1,1.39-1.39h9.7a1.39,1.39,0,0,1,1.39,1.39v3.45a1.39,1.39,0,0,0,1.39,1.39H148a7.1,7.1,0,0,0,7.11-7.11V123H89.33Z"/><path class="cls-4" d="M89.33,246h27.86a1.39,1.39,0,0,0,1.37-1.66l-15.68-79a1.39,1.39,0,0,0-1.37-1.12H94.89a1.39,1.39,0,0,1-1.39-1.39V150H89.33Z"/><path class="cls-1" d="M102.25,149.62a1.39,1.39,0,0,1-1,.41A1.39,1.39,0,0,0,102.25,149.62Z"/><path class="cls-1" d="M16.49,156.53h0Z"/><path class="cls-4" d="M52.91,123V101.17H46.35A2.38,2.38,0,0,0,44,103.55v9A1.39,1.39,0,0,1,42.57,114H34.09a1.35,1.35,0,0,1-1-.4,1.44,1.44,0,0,1-.41-1c0-1.17-.13-2.27-.26-3.34,0-.32-.09-.62-.13-.92q-.17-1.15-.41-2.21c-.06-.28-.12-.56-.19-.83a26.17,26.17,0,0,0-.8-2.62l0-.08a22.91,22.91,0,0,0-1-2.25c-.11-.22-.23-.43-.35-.64q-.43-.78-.9-1.5c-.12-.19-.24-.38-.37-.56a20.51,20.51,0,0,0-1.36-1.73l-.11-.12c-.44-.49-.91-1-1.38-1.38L24.93,94q-.56-.48-1.13-.91l-.48-.36c-.52-.37-1-.71-1.57-1l-.24-.13q-.69-.39-1.38-.72l-.57-.26q-.55-.24-1.08-.45L17.94,90c-.49-.18-1-.35-1.45-.49V123Z"/><path class="cls-2" d="M83.3,150v12.79a1.39,1.39,0,0,1-1.39,1.39H73.36a1.39,1.39,0,0,0-1.39,1.3l-5.43,79A1.39,1.39,0,0,0,67.93,246h21.4V150Z"/><path class="cls-2" d="M89.33,123H52.91v21.83h13.2a1.39,1.39,0,0,1,.61.14l10,4.91a1.39,1.39,0,0,0,.61.14h12Z"/><path class="cls-2" d="M89.33,123V0H67.93a1.39,1.39,0,0,0-1.39,1.49l5.43,79a1.39,1.39,0,0,0,1.39,1.3h8.54a1.39,1.39,0,0,1,1.39,1.39V96H77.38a1.39,1.39,0,0,0-.61.14l-10,4.91a1.39,1.39,0,0,1-.61.14H52.91V123Z"/><path class="cls-5" d="M52.91,123v21.83H46.35A2.38,2.38,0,0,1,44,142.45v-9A1.39,1.39,0,0,0,42.57,132H34.09a1.35,1.35,0,0,0-1,.4,1.44,1.44,0,0,0-.41,1c0,1.17-.13,2.27-.26,3.34,0,.32-.09.62-.13.92q-.17,1.15-.41,2.21c-.06.28-.12.56-.19.83a26.17,26.17,0,0,1-.8,2.62l0,.08a22.91,22.91,0,0,1-1,2.25c-.11.22-.23.43-.35.64q-.43.78-.9,1.5c-.12.19-.24.38-.37.56a20.51,20.51,0,0,1-1.36,1.73l-.11.12c-.44.49-.91,1-1.38,1.38l-.49.42q-.56.48-1.13.91l-.48.36c-.52.37-1,.71-1.57,1l-.24.13q-.69.39-1.38.72l-.57.26q-.55.24-1.08.45l-.54.21c-.49.18-1,.35-1.45.49V123Z"/><path class="cls-2" d="M46.35,101.17A2.38,2.38,0,0,0,44,103.55v38.9a2.38,2.38,0,0,0,2.38,2.38h2.3V101.17Z"/></g></g></svg>