<svg xmlns="http://www.w3.org/2000/svg" viewBox="0 0 162.65 185.57"><defs><style>.cls-1{fill:#d8d8d8;}.cls-2{fill:#a5a5a5;}.cls-3{fill:#fff;}</style></defs><title>Ship1</title><g id="Layer_2" data-name="Layer 2"><g id="Layer_14_copy" data-name="Layer 14 copy"><path class="cls-1" d="M128.1,182.3V161.48a3.28,3.28,0,0,0-3.28-3.28H121a3.28,3.28,0,0,1-3.28-3.28v-3.85A3.28,3.28,0,0,1,121,147.8h38.4a3.28,3.28,0,0,0,3.28-3.28V129.07a3.28,3.28,0,0,0-1.88-3L122,107.87a3.28,3.28,0,0,1-1.88-2.89l-.71-31.54a72.51,72.51,0,0,0-8.38-32.24L93,7A13.15,13.15,0,0,0,69.74,7L51.63,41.17a72.51,72.51,0,0,0-8.42,32.31L42.5,105a3.28,3.28,0,0,1-1.88,2.89L1.88,126.1a3.28,3.28,0,0,0-1.88,3v15.45a3.28,3.28,0,0,0,3.28,3.28h38.4A3.28,3.28,0,0,1,45,151.08v3.85a3.28,3.28,0,0,1-3.28,3.28H37.83a3.28,3.28,0,0,0-3.28,3.28V182.3a3.28,3.28,0,0,0,3.28,3.28h87A3.28,3.28,0,0,0,128.1,182.3Z"/><path class="cls-2" d="M160.76,126.1,122,107.87a3.28,3.28,0,0,1-1.88-2.89l-.71-31.54a72.51,72.51,0,0,0-8.38-32.24L93,7A13,13,0,0,0,81.32,0V185.57h43.5a3.28,3.28,0,0,0,3.28-3.28V161.48a3.28,3.28,0,0,0-3.28-3.28H121a3.28,3.28,0,0,1-3.28-3.28v-3.85A3.28,3.28,0,0,1,121,147.8h38.4a3.28,3.28,0,0,0,3.28-3.28V129.07A3.28,3.28,0,0,0,160.76,126.1Z"/><circle class="cls-3" cx="81.32" cy="67.05" r="16.23"/></g></g></svg>