<svg xmlns="http://www.w3.org/2000/svg" viewBox="0 0 235.59 238.42"><defs><style>.cls-1{fill:#238269;}.cls-2{fill:#175a4a;}.cls-3{fill:none;}.cls-4{fill:#1d634f;}.cls-5{fill:#fdeec2;}</style></defs><title>Ship2_Green</title><g id="Layer_2" data-name="Layer 2"><g id="Layer_13" data-name="Layer 13"><path class="cls-1" d="M159,104.89c2.5,0,57.44,35,57.44,35l-5,20s-32.47-25-49.95-17.48"/><path class="cls-2" d="M211.31,160a136.44,136.44,0,0,0-11.52-7.32,111.53,111.53,0,0,0-12.19-6,59.6,59.6,0,0,0-12.85-3.91c-4.34-.7-8.88-.72-12.65,1L160.9,141a19.87,19.87,0,0,1,7.22-1.33,32.9,32.9,0,0,1,7.08.77A61.63,61.63,0,0,1,188.32,145a113,113,0,0,1,12,6.69,137.14,137.14,0,0,1,11.23,7.91Z"/><path class="cls-1" d="M76.59,104.89c-2.5,0-57.44,35-57.44,35l5,20s32.47-25,49.95-17.48"/><path class="cls-2" d="M24,159.65a137.15,137.15,0,0,1,11.23-7.91,113,113,0,0,1,12-6.69,61.63,61.63,0,0,1,13.11-4.66,32.9,32.9,0,0,1,7.08-.77A19.87,19.87,0,0,1,74.69,141l-1.2,2.81c-3.77-1.72-8.31-1.71-12.65-1A59.6,59.6,0,0,0,48,146.66a111.53,111.53,0,0,0-12.19,6A136.42,136.42,0,0,0,24.28,160Z"/><path class="cls-1" d="M166.5,179.82C166.5,82.42,136.53,0,116.55,0S66.6,82.42,66.6,179.82c0,5,27.47,7.49,37.46,7.49v1.16L91.46,199a6.64,6.64,0,0,0-2.39,5.1v24.62A7.15,7.15,0,0,0,94,235.51c4.25,1.37,11.49,2.9,22.57,2.9,11.59,0,18.53-1.33,22.54-2.62A7.16,7.16,0,0,0,144,229v-24.9a6.64,6.64,0,0,0-2.39-5.1L129,188.47v-1.16C139,187.31,166.5,184.81,166.5,179.82Z"/><path class="cls-3" d="M66.6,179.82c0,5,27.47,7.49,37.46,7.49v1.16L91.46,199a6.64,6.64,0,0,0-2.39,5.1v24.62A7.15,7.15,0,0,0,94,235.52c4.25,1.37,11.49,2.9,22.55,2.9V0C96.57,0,66.6,82.42,66.6,179.82Z"/><path class="cls-4" d="M166.5,179.82C166.5,82.42,136.53,0,116.55,0V238.42c11.56,0,18.5-1.32,22.51-2.61a7.17,7.17,0,0,0,5-6.85v-24.9a6.64,6.64,0,0,0-2.39-5.1L129,188.47v-1.16C139,187.31,166.5,184.81,166.5,179.82Z"/><path class="cls-1" d="M16.65,182.31c3.33,0,16.65-.83,16.65-2.5,0-32.47-10-59.94-16.65-59.94S0,147.35,0,179.82c0,1.66,13.32,2.5,16.65,2.5"/><path class="cls-4" d="M33.3,179.82c0-32.47-10-59.94-16.65-59.94v62.44C20,182.31,33.3,181.48,33.3,179.82Z"/><path class="cls-2" d="M.41,168.46C.15,172.15,0,175.95,0,179.82c0,1.66,12.44,2.5,16.65,2.5s16.65-.83,16.65-2.5c0-3.84-.14-7.6-.4-11.26C19.42,172.43,6.54,170.07.41,168.46Z"/><path class="cls-5" d="M116.55,25c-2.5,0-15,5-15,27.47,0,16.93,8.51,39.54,12.7,49.66a2.47,2.47,0,0,0,4.57,0C123,92,131.53,69.38,131.53,52.45,131.53,30,119,25,116.55,25Z"/><ellipse class="cls-5" cx="116.55" cy="142.36" rx="9.99" ry="17.48"/><path class="cls-1" d="M218.94,182.31c3.33,0,16.65-.83,16.65-2.5,0-32.47-10-59.94-16.65-59.94s-16.65,27.47-16.65,59.94c0,1.66,13.32,2.5,16.65,2.5"/><path class="cls-4" d="M235.59,179.82c0-32.47-10-59.94-16.65-59.94v62.44C222.27,182.31,235.59,181.48,235.59,179.82Z"/><path class="cls-2" d="M202.7,168.46c-.26,3.69-.41,7.49-.41,11.36,0,1.66,12.44,2.5,16.65,2.5s16.65-.83,16.65-2.5c0-3.84-.14-7.6-.4-11.26C221.72,172.43,208.83,170.07,202.7,168.46Z"/></g></g></svg>