<svg xmlns="http://www.w3.org/2000/svg" viewBox="0 0 235.59 239.15"><defs><style>.cls-1{fill:#19c1d8;}.cls-2{fill:#0e8487;}.cls-3{fill:none;}.cls-4{fill:#0e9aa5;}.cls-5{fill:azure;}</style></defs><title>Ship2_Blue</title><g id="Layer_2" data-name="Layer 2"><g id="Layer_14" data-name="Layer 14"><path class="cls-1" d="M159,104.89c2.5,0,57.44,35,57.44,35l-5,20s-32.47-25-49.95-17.48"/><path class="cls-2" d="M211.1,160.3a136,136,0,0,0-11.74-6.89,110,110,0,0,0-12.29-5.55,57.52,57.52,0,0,0-12.65-3.34c-4.17-.52-8.36-.28-11.41,1.34l-3-7c5.46-2,10.82-1.36,15.54-.23a62.62,62.62,0,0,1,13.31,5.23A113.53,113.53,0,0,1,200.79,151a137.8,137.8,0,0,1,11,8.35Z"/><path class="cls-1" d="M76.59,104.89c-2.5,0-57.44,35-57.44,35l5,20s32.47-25,49.95-17.48"/><path class="cls-2" d="M23.79,159.37a137.74,137.74,0,0,1,11-8.35,113.54,113.54,0,0,1,11.94-7.18,62.63,62.63,0,0,1,13.31-5.23c4.73-1.13,10.09-1.75,15.54.23l-3,7c-3.05-1.61-7.24-1.86-11.41-1.34a57.52,57.52,0,0,0-12.65,3.34,110,110,0,0,0-12.29,5.55A136,136,0,0,0,24.5,160.3Z"/><path class="cls-1" d="M166.5,179.82C166.5,82.42,136.53,0,116.55,0S66.6,82.42,66.6,179.82c0,5,27.47,7.49,37.46,7.49v1.89l-12.6,10.5a6.64,6.64,0,0,0-2.39,5.1v24.62A7.15,7.15,0,0,0,94,236.24c4.25,1.37,11.49,2.9,22.57,2.9,11.59,0,18.53-1.33,22.54-2.62a7.16,7.16,0,0,0,4.93-6.84v-24.9a6.64,6.64,0,0,0-2.39-5.1L129,189.2v-1.89C139,187.31,166.5,184.81,166.5,179.82Z"/><path class="cls-3" d="M66.6,179.82c0,5,27.47,7.49,37.46,7.49v1.89l-12.6,10.5a6.64,6.64,0,0,0-2.39,5.1v24.62A7.15,7.15,0,0,0,94,236.25c4.25,1.37,11.49,2.9,22.55,2.9V0C96.57,0,66.6,82.42,66.6,179.82Z"/><path class="cls-4" d="M166.5,179.82C166.5,82.42,136.53,0,116.55,0V239.15c11.56,0,18.5-1.32,22.51-2.61a7.17,7.17,0,0,0,5-6.85v-24.9a6.64,6.64,0,0,0-2.39-5.1L129,189.2v-1.89C139,187.31,166.5,184.81,166.5,179.82Z"/><path class="cls-1" d="M16.65,182.31c3.33,0,16.65-.83,16.65-2.5,0-32.47-10-59.94-16.65-59.94S0,147.35,0,179.82c0,1.66,13.32,2.5,16.65,2.5"/><path class="cls-4" d="M16.65,119.88v62.44c3.33,0,16.65-.83,16.65-2.5C33.3,147.35,23.31,119.88,16.65,119.88Z"/><path class="cls-2" d="M.41,168.46C.15,172.15,0,175.95,0,179.82c0,1.66,12.44,2.5,16.65,2.5s16.65-.83,16.65-2.5c0-3.84-.14-7.6-.4-11.26C19.42,172.43,6.54,170.07.41,168.46Z"/><path class="cls-5" d="M116.55,25c-2.5,0-15,5-15,27.47,0,16.93,8.51,39.54,12.7,49.66a2.47,2.47,0,0,0,4.57,0C123,92,131.53,69.38,131.53,52.45,131.53,30,119,25,116.55,25Z"/><ellipse class="cls-5" cx="116.55" cy="142.36" rx="9.99" ry="17.48"/><path class="cls-1" d="M218.94,182.31c3.33,0,16.65-.83,16.65-2.5,0-32.47-10-59.94-16.65-59.94s-16.65,27.47-16.65,59.94c0,1.66,13.32,2.5,16.65,2.5"/><path class="cls-4" d="M218.94,119.88v62.44c3.33,0,16.65-.83,16.65-2.5C235.59,147.35,225.6,119.88,218.94,119.88Z"/><path class="cls-2" d="M202.7,168.46c-.26,3.69-.41,7.49-.41,11.36,0,1.66,12.44,2.5,16.65,2.5s16.65-.83,16.65-2.5c0-3.84-.14-7.6-.4-11.26C221.72,172.43,208.83,170.07,202.7,168.46Z"/></g></g></svg>